<svg width="64" height="64" viewBox="0 0 64 64" xmlns="http://www.w3.org/2000/svg">
    <defs>
        <filter id="neonGlow" x="-50%" y="-50%" width="200%" height="200%">
            <feGaussianBlur in="SourceGraphic" stdDeviation="2" result="blur"/>
            <feFlood flood-color="#00ffff" flood-opacity="0.8" result="color"/>
            <feComposite in="color" in2="blur" operator="in" result="coloredBlur"/>
            <feMerge>
                <feMergeNode in="coloredBlur"/>
                <feMergeNode in="SourceGraphic"/>
            </feMerge>
        </filter>
        
        <linearGradient id="neonGradient" x1="0%" y1="0%" x2="100%" y2="100%">
            <stop offset="0%" stop-color="#00ffff"/>
            <stop offset="100%" stop-color="#00b7eb"/>
        </linearGradient>
    </defs>
    
    <!-- Fondo circular oscuro -->
    <circle cx="32" cy="32" r="30" fill="#121212"/>
    
    <!-- Símbolo de organización de tareas con efecto neón -->
    <g stroke="url(#neonGradient)" stroke-width="2" fill="none" filter="url(#neonGlow)">
        <!-- Tablero principal -->
        <rect x="16" y="16" width="32" height="32" rx="4" fill="none"/>
        
        <!-- Columnas del tablero -->
        <line x1="26" y1="16" x2="26" y2="48"/>
        <line x1="38" y1="16" x2="38" y2="48"/>
        
        <!-- Tareas representadas como líneas -->
        <line x1="18" y1="22" x2="24" y2="22" stroke-width="3"/>
        <line x1="18" y1="27" x2="24" y2="27" stroke-width="3"/>
        <line x1="18" y1="32" x2="24" y2="32" stroke-width="3"/>
        
        <line x1="28" y1="22" x2="36" y2="22" stroke-width="3"/>
        <line x1="28" y1="28" x2="34" y2="28" stroke-width="3"/>
        <line x1="28" y1="34" x2="36" y2="34" stroke-width="3"/>
        
        <line x1="40" y1="22" x2="46" y2="22" stroke-width="3"/>
        <line x1="40" y1="28" x2="46" y2="28" stroke-width="3"/>
        <line x1="40" y1="34" x2="46" y2="34" stroke-width="3"/>
        
        <!-- Indicador de progreso -->
        <circle cx="32" cy="42" r="3" fill="url(#neonGradient)"/>
    </g>
</svg>
